<?xml version="1.0" ?><!DOCTYPE svg  PUBLIC '-//W3C//DTD SVG 1.1//EN'  'http://www.w3.org/Graphics/SVG/1.1/DTD/svg11.dtd'><svg height="100%" style="fill-rule:evenodd;clip-rule:evenodd;stroke-linejoin:round;stroke-miterlimit:2;" version="1.1" viewBox="0 0 32 32" width="100%" xml:space="preserve" xmlns="http://www.w3.org/2000/svg" xmlns:serif="http://www.serif.com/" xmlns:xlink="http://www.w3.org/1999/xlink"><path d="M14.995,11l-0.003,0c-1.656,0 -3,1.344 -3,3c-0,1.656 1.344,3 3,3c-0,0 2,0 2,0c0.552,0 1,0.448 1,1c-0,0.552 -0.448,1 -1,1c-0,0 -3,0 -3,0c-0.552,0 -1,0.448 -1,1c-0,0.552 0.448,1 1,1l1.003,0l0,1c0,0.552 0.448,1 1,1c0.552,-0 1,-0.448 1,-1l0,-1c1.654,-0.002 2.997,-1.345 2.997,-3c-0,-1.656 -1.344,-3 -3,-3c-0,0 -2,0 -2,0c-0.552,0 -1,-0.448 -1,-1c-0,-0.552 0.448,-1 1,-1l3,0c0.552,0 1,-0.448 1,-1c-0,-0.552 -0.448,-1 -1,-1l-0.997,0l0,-1c0,-0.552 -0.448,-1 -1,-1c-0.552,-0 -1,0.448 -1,1l0,1Z"/><path d="M25.536,26.938c0.221,-0.082 0.404,-0.239 0.52,-0.44c0.104,-0.158 0.163,-0.344 0.164,-0.538c0.001,-0.33 -0.163,-0.637 -0.437,-0.819l-4.445,-2.95c-0.453,-0.301 -1.345,-0.192 -1.345,0.275l-0,2.531c-6.795,0.001 -15.486,0.001 -15.486,0.001c-0.022,0 -0.045,0.001 -0.067,0.002l-0.44,0c-0.265,0 -0.52,-0.105 -0.707,-0.293c-0.188,-0.187 -0.293,-0.442 -0.293,-0.707l0,-18c0,-0.552 -0.448,-1 -1,-1c-0.552,-0 -1,0.448 -1,1l0,18c-0,0.796 0.316,1.559 0.879,2.121c0.562,0.563 1.325,0.879 2.121,0.879l15.956,0.048c0,0 0,1.958 0,2.424c0,0.466 0.887,0.574 1.343,0.271l4.237,-2.805Z"/><path d="M6.473,3.959c-0.22,0.082 -0.404,0.239 -0.52,0.44c-0.104,0.158 -0.162,0.344 -0.163,0.538c-0.002,0.33 0.162,0.637 0.437,0.82l4.444,2.949c0.453,0.301 1.346,0.193 1.346,-0.275l-0,-2.531c6.795,-0.001 15.485,-0.001 15.485,-0.001c0.023,0 0.045,-0 0.067,-0.002l0.44,0c0.266,0 0.52,0.106 0.707,0.293c0.188,0.188 0.293,0.442 0.293,0.707l0,18c0,0.552 0.448,1 1,1c0.552,0 1,-0.448 1,-1l0,-18c0,-0.795 -0.316,-1.559 -0.878,-2.121c-0.563,-0.563 -1.326,-0.879 -2.122,-0.879l-15.956,-0.048c-0,0 -0,-1.957 -0,-2.424c-0,-0.466 -0.886,-0.574 -1.343,-0.271l-4.237,2.805Z"/></svg>